<?xml version="1.0" standalone="no"?>
<!DOCTYPE svg PUBLIC "-//W3C//DTD SVG 20010904//EN"
 "http://www.w3.org/TR/2001/REC-SVG-20010904/DTD/svg10.dtd">
<svg version="1.0" xmlns="http://www.w3.org/2000/svg"
 width="261.000000pt" height="261.000000pt" viewBox="0 0 261.000000 261.000000"
 preserveAspectRatio="xMidYMid meet">
<metadata>
Created by potrace 1.14, written by Peter Selinger 2001-2017
</metadata>
<g transform="translate(0.000000,261.000000) scale(0.100000,-0.100000)"
fill="#000000" stroke="none">
<path d="M945 2459 c-104 -38 -320 -117 -480 -175 -159 -58 -293 -109 -298
-113 -4 -4 -30 -88 -58 -185 l-51 -178 65 -67 c36 -36 90 -92 120 -124 30 -32
57 -55 60 -50 2 4 39 130 82 278 42 149 82 275 88 282 13 12 617 263 635 263
20 0 263 -163 259 -174 -3 -6 -23 -74 -46 -151 -23 -77 -46 -151 -51 -165 -4
-14 -25 -81 -45 -150 -20 -69 -40 -128 -44 -132 -3 -3 -33 7 -66 22 -33 16
-90 42 -127 59 -38 17 -68 35 -68 39 0 7 129 442 141 477 7 19 -16 16 -106
-15 -219 -74 -238 -83 -252 -120 -30 -86 -324 -1073 -321 -1080 2 -4 55 -63
120 -130 l116 -122 26 84 c170 562 219 727 223 746 3 13 9 22 12 20 4 -2 65
-35 137 -75 l129 -72 115 40 c63 22 140 50 172 61 31 11 58 27 61 37 2 9 35
115 72 236 37 121 80 261 95 312 l27 91 -267 151 c-147 83 -271 151 -276 151
-5 0 -94 -32 -199 -71z"/>
<path d="M1146 1325 c-137 -52 -253 -98 -257 -102 -9 -9 -79 -245 -79 -265 0
-7 40 -55 89 -106 l89 -94 16 54 c8 29 38 129 65 221 27 92 50 170 52 171 8 8
242 106 245 103 2 -1 -66 -234 -151 -517 l-154 -515 33 -35 c18 -19 58 -62 88
-94 64 -69 50 -72 179 45 46 42 104 93 128 115 l44 39 -7 -37 c-7 -37 -5 -40
76 -124 46 -47 84 -90 86 -95 3 -7 143 99 222 167 14 12 108 89 209 171 l184
149 74 245 c41 134 76 251 78 259 2 8 26 88 53 178 l50 164 -27 -7 c-21 -5
-136 -47 -222 -80 -12 -4 -52 -124 -135 -402 l-119 -396 -65 -54 c-36 -30 -74
-62 -85 -72 -12 -9 -46 -38 -78 -64 -58 -49 -65 -48 -47 7 33 97 318 1061 315
1065 -2 2 -62 -16 -132 -40 l-128 -44 -52 -175 c-57 -186 -64 -210 -143 -475
-54 -184 -46 -170 -160 -258 -30 -23 -79 -61 -108 -86 -29 -24 -54 -42 -57
-39 -2 2 58 213 135 468 l139 464 -22 25 c-58 65 -156 161 -164 160 -4 0 -120
-43 -257 -94z"/>
</g>
</svg>
